<svg width="33" height="32" viewBox="0 0 33 32" fill="none" xmlns="http://www.w3.org/2000/svg">
    <path d="M29.667 21H28.667V9C28.667 8.20435 28.3509 7.44129 27.7883 6.87868C27.2257 6.31607 26.4626 6 25.667 6H7.66699C6.87134 6 6.10828 6.31607 5.54567 6.87868C4.98306 7.44129 4.66699 8.20435 4.66699 9V21H3.66699C3.40178 21 3.14742 21.1054 2.95989 21.2929C2.77235 21.4804 2.66699 21.7348 2.66699 22V24C2.66699 24.7956 2.98306 25.5587 3.54567 26.1213C4.10828 26.6839 4.87134 27 5.66699 27H27.667C28.4626 27 29.2257 26.6839 29.7883 26.1213C30.3509 25.5587 30.667 24.7956 30.667 24V22C30.667 21.7348 30.5616 21.4804 30.3741 21.2929C30.1866 21.1054 29.9322 21 29.667 21ZM6.66699 9C6.66699 8.73478 6.77235 8.48043 6.95989 8.29289C7.14742 8.10536 7.40178 8 7.66699 8H25.667C25.9322 8 26.1866 8.10536 26.3741 8.29289C26.5616 8.48043 26.667 8.73478 26.667 9V21H6.66699V9ZM28.667 24C28.667 24.2652 28.5616 24.5196 28.3741 24.7071C28.1866 24.8946 27.9322 25 27.667 25H5.66699C5.40178 25 5.14742 24.8946 4.95989 24.7071C4.77235 24.5196 4.66699 24.2652 4.66699 24V23H28.667V24ZM19.667 11C19.667 11.2652 19.5616 11.5196 19.3741 11.7071C19.1866 11.8946 18.9322 12 18.667 12H14.667C14.4018 12 14.1474 11.8946 13.9599 11.7071C13.7723 11.5196 13.667 11.2652 13.667 11C13.667 10.7348 13.7723 10.4804 13.9599 10.2929C14.1474 10.1054 14.4018 10 14.667 10H18.667C18.9322 10 19.1866 10.1054 19.3741 10.2929C19.5616 10.4804 19.667 10.7348 19.667 11Z"
          fill="#2563EB"/>
</svg>
