<svg width="33" height="32" viewBox="0 0 33 32" fill="none" xmlns="http://www.w3.org/2000/svg">
    <path d="M22.162 10.1712C21.8295 8.38012 21.014 6.71388 19.8035 5.35242C18.5931 3.99097 17.0338 2.98602 15.2939 2.44609C13.5541 1.90615 11.6998 1.85175 9.93125 2.28875C8.16272 2.72575 6.54716 3.63755 5.25901 4.9257C3.97086 6.21385 3.05906 7.82941 2.62206 9.59793C2.18506 11.3665 2.23947 13.2208 2.7794 14.9606C3.31933 16.7005 4.32428 18.2598 5.68574 19.4702C7.04719 20.6806 8.71343 21.4962 10.5045 21.8287C10.8371 23.6198 11.6526 25.2861 12.863 26.6475C14.0734 28.009 15.6328 29.0139 17.3726 29.5539C19.1125 30.0938 20.9668 30.1482 22.7353 29.7112C24.5039 29.2742 26.1194 28.3624 27.4076 27.0742C28.6957 25.7861 29.6075 24.1705 30.0445 22.402C30.4815 20.6335 30.4271 18.7792 29.8872 17.0393C29.3472 15.2994 28.3423 13.7401 26.9808 12.5297C25.6194 11.3193 23.9531 10.5038 22.162 10.1712ZM28.3333 20C28.3333 20.19 28.3245 20.375 28.3108 20.5637L22.0608 14.3137C22.2232 13.6372 22.3145 12.9455 22.3333 12.25C24.05 12.6957 25.5704 13.6983 26.6562 15.1008C27.742 16.5033 28.3318 18.2263 28.3333 20ZM6.01704 7.09872L12.5945 13.675C12.1085 14.2689 11.6921 14.9164 11.3533 15.605L4.87079 9.12497C5.15203 8.39728 5.5382 7.71464 6.01704 7.09872ZM9.45829 4.53747L15.9408 11.02C15.2522 11.3588 14.6047 11.7752 14.0108 12.2612L7.43204 5.68372C8.04795 5.20489 8.73059 4.81871 9.45829 4.53747ZM17.1408 18.3912L13.9445 15.195C14.397 14.595 14.9309 14.0612 15.5308 13.6087L18.727 16.805C18.2738 17.4051 17.7391 17.939 17.1383 18.3912H17.1408ZM19.747 15L17.3333 12.5862C18.2858 12.1982 19.3047 11.9991 20.3333 12C20.3341 13.0285 20.135 14.0474 19.747 15ZM12.9195 17L15.3333 19.4137C14.3807 19.8017 13.3618 20.0008 12.3333 20C12.3324 18.9714 12.5315 17.9525 12.9195 17ZM18.6583 19.7387L25.2345 26.3162C24.6186 26.7951 23.936 27.1812 23.2083 27.4625L16.7258 20.98C17.4152 20.6413 18.0636 20.2249 18.6583 19.7387ZM20.072 18.325C20.558 17.7311 20.9745 17.0835 21.3133 16.395L27.7958 22.875C27.5143 23.6018 27.1282 24.2836 26.6495 24.8987L20.072 18.325ZM20.0833 10.0062C19.3888 10.0231 18.698 10.1124 18.022 10.2725L11.772 4.02247C11.9583 4.00872 12.1433 3.99997 12.3333 3.99997C14.1078 4.0018 15.8315 4.59253 17.2341 5.67953C18.6366 6.76653 19.6388 8.28832 20.0833 10.0062ZM4.33329 12C4.33329 11.81 4.34204 11.625 4.35579 11.4362L10.6058 17.6862C10.4455 18.363 10.3563 19.0547 10.3395 19.75C8.62163 19.3055 7.09984 18.3033 6.01284 16.9007C4.92584 15.4982 4.33511 13.7745 4.33329 12ZM12.5833 22C13.2778 21.9831 13.9686 21.8938 14.6445 21.7337L20.8945 27.9837C20.7083 27.9975 20.5195 28.0062 20.3308 28.0062C18.5567 28.0038 16.8336 27.4129 15.4315 26.3259C14.0295 25.2389 13.0277 23.7175 12.5833 22Z"
          fill="#2563EB"/>
</svg>
