<svg width="56" height="56" viewBox="0 0 56 56" fill="none" xmlns="http://www.w3.org/2000/svg">
    <g opacity="0.9">
        <g clip-path="url(#clip0_502_2215)">
            <path fill-rule="evenodd" clip-rule="evenodd"
                  d="M56 0H0V56H56V0ZM19.0099 44.2041L14.7246 46.7976L14.7244 46.7972C15.9649 49.4285 18.4086 51.6088 22.6184 51.6088C27.28 51.6088 30.475 49.1277 30.475 43.6771V25.7094H25.2126V43.6028C25.2126 46.2339 24.1221 46.9103 22.3929 46.9103C20.5888 46.9103 19.8368 45.6699 19.0099 44.2041ZM37.6183 43.7528L33.3334 46.2337L33.3332 46.2339C34.8743 49.2789 38.032 51.6094 42.9186 51.6094C47.9181 51.6094 51.6395 49.0159 51.6395 44.2791C51.6395 39.8814 49.1211 37.9269 44.6476 36.0095L43.3321 35.4458C41.0767 34.4684 40.0994 33.829 40.0994 32.2503C40.0994 30.9724 41.0767 29.995 42.6181 29.995C44.1217 29.995 45.0987 30.6339 46.001 32.2503L50.0986 29.6187C48.3696 26.5739 45.9638 25.4084 42.6183 25.4084C37.9193 25.4084 34.9121 28.4158 34.9121 32.3629C34.9121 36.6483 37.4306 38.6783 41.2275 40.2942L42.5428 40.8585C44.9486 41.9107 46.3771 42.5499 46.3771 44.3542C46.3771 45.8578 44.9867 46.9481 42.806 46.9481C40.2125 46.9481 38.7464 45.5949 37.6183 43.7528Z"
                  fill="white"/>
        </g>
    </g>
    <defs>
        <clipPath id="clip0_502_2215">
            <rect width="56" height="56" rx="8" fill="white"/>
        </clipPath>
    </defs>
</svg>
