<svg width="56" height="57" viewBox="0 0 56 57" fill="none" xmlns="http://www.w3.org/2000/svg">
    <g opacity="0.9">
        <path d="M54.1334 28.6469C54.1334 34.8331 42.4331 39.8469 28 39.8469C13.567 39.8469 1.8667 34.8331 1.8667 28.6469C1.8667 22.4608 13.567 17.4469 28 17.4469C42.4331 17.4469 54.1334 22.4608 54.1334 28.6469Z"
              stroke="white" stroke-width="3"/>
        <path d="M15.5531 51.6256C20.9926 54.5749 30.9718 46.6714 37.8486 33.9818C44.7216 21.2885 45.8864 8.61385 40.447 5.66825C35.0075 2.71892 25.0283 10.6224 18.1515 23.312C11.2785 36.0053 10.1137 48.68 15.5531 51.6256Z"
              stroke="white" stroke-width="3"/>
        <path d="M40.447 51.6256C35.0075 54.5749 25.0283 46.6714 18.1515 33.9818C11.2785 21.2885 10.1137 8.61385 15.5531 5.66825C20.9926 2.71892 30.9718 10.6224 37.8486 23.312C44.7216 36.0053 45.8864 48.68 40.447 51.6256Z"
              stroke="white" stroke-width="3"/>
        <path d="M24.2667 28.6469C24.2667 29.637 24.6601 30.5866 25.3602 31.2868C26.0603 31.9869 27.0099 32.3802 28.0001 32.3802C28.9902 32.3802 29.9398 31.9869 30.6399 31.2868C31.3401 30.5866 31.7334 29.637 31.7334 28.6469C31.7334 27.6568 31.3401 26.7072 30.6399 26.007C29.9398 25.3069 28.9902 24.9136 28.0001 24.9136C27.0099 24.9136 26.0603 25.3069 25.3602 26.007C24.6601 26.7072 24.2667 27.6568 24.2667 28.6469Z"
              stroke="white" stroke-width="3"/>
    </g>
</svg>
