<svg width="20" height="20" viewBox="0 0 20 20" fill="none" xmlns="http://www.w3.org/2000/svg">
    <path d="M11.0672 10.4422L4.81717 16.6922C4.69989 16.8094 4.54083 16.8753 4.37498 16.8753C4.20913 16.8753 4.05007 16.8094 3.93279 16.6922C3.81552 16.5749 3.74963 16.4158 3.74963 16.25C3.74963 16.0841 3.81552 15.9251 3.93279 15.8078L9.74139 9.99998L3.93279 4.19217C3.81552 4.07489 3.74963 3.91583 3.74963 3.74998C3.74963 3.58413 3.81552 3.42507 3.93279 3.30779C4.05007 3.19052 4.20913 3.12463 4.37498 3.12463C4.54083 3.12463 4.69989 3.19052 4.81717 3.30779L11.0672 9.55779C11.1253 9.61584 11.1714 9.68477 11.2028 9.76064C11.2343 9.83652 11.2505 9.91785 11.2505 9.99998C11.2505 10.0821 11.2343 10.1634 11.2028 10.2393C11.1714 10.3152 11.1253 10.3841 11.0672 10.4422ZM17.3172 9.55779L11.0672 3.30779C10.9499 3.19052 10.7908 3.12463 10.625 3.12463C10.4591 3.12463 10.3001 3.19052 10.1828 3.30779C10.0655 3.42507 9.99963 3.58413 9.99963 3.74998C9.99963 3.91583 10.0655 4.07489 10.1828 4.19217L15.9914 9.99998L10.1828 15.8078C10.0655 15.9251 9.99963 16.0841 9.99963 16.25C9.99963 16.4158 10.0655 16.5749 10.1828 16.6922C10.3001 16.8094 10.4591 16.8753 10.625 16.8753C10.7908 16.8753 10.9499 16.8094 11.0672 16.6922L17.3172 10.4422C17.3753 10.3841 17.4214 10.3152 17.4528 10.2393C17.4843 10.1634 17.5005 10.0821 17.5005 9.99998C17.5005 9.91785 17.4843 9.83652 17.4528 9.76064C17.4214 9.68477 17.3753 9.61584 17.3172 9.55779Z"
          fill="currentColor"/>
</svg>
