<svg width="21" height="20" viewBox="0 0 21 20" fill="currentColor" xmlns="http://www.w3.org/2000/svg">
    <path d="M17.6336 8.49058L11.3836 2.24058C11.1492 2.00634 10.8314 1.87476 10.5 1.87476C10.1686 1.87476 9.85081 2.00634 9.61641 2.24058L3.36641 8.49058C3.24978 8.60635 3.15732 8.74416 3.09442 8.89598C3.03151 9.04781 2.99942 9.21062 3.00001 9.37496V16.875C3.00001 17.0407 3.06586 17.1997 3.18307 17.3169C3.30028 17.4341 3.45925 17.5 3.62501 17.5H17.375C17.5408 17.5 17.6997 17.4341 17.817 17.3169C17.9342 17.1997 18 17.0407 18 16.875V9.37496C18.0006 9.21062 17.9685 9.04781 17.9056 8.89598C17.8427 8.74416 17.7502 8.60635 17.6336 8.49058ZM16.75 16.25H4.25001V9.37496L10.5 3.12496L16.75 9.37496V16.25Z"
          fill="currentColor"/>
</svg>
