<svg width="49" height="48" viewBox="0 0 49 48" fill="none" xmlns="http://www.w3.org/2000/svg">
    <path d="M13.6265 17.6531L6.01029 24L13.6265 30.3469C13.7823 30.4715 13.9115 30.626 14.0068 30.8012C14.1021 30.9764 14.1615 31.1689 14.1815 31.3673C14.2016 31.5658 14.1818 31.7662 14.1234 31.9569C14.065 32.1477 13.9692 32.3248 13.8415 32.4781C13.7139 32.6313 13.5569 32.7575 13.3798 32.8494C13.2028 32.9412 13.0092 32.9968 12.8104 33.013C12.6116 33.0291 12.4116 33.0054 12.222 32.9433C12.0325 32.8812 11.8572 32.7819 11.7065 32.6512L2.70654 25.1513C2.53767 25.0105 2.4018 24.8343 2.30856 24.6352C2.21532 24.4361 2.16699 24.2189 2.16699 23.9991C2.16699 23.7792 2.21532 23.562 2.30856 23.3629C2.4018 23.1638 2.53767 22.9876 2.70654 22.8469L11.7065 15.3469C12.0124 15.0923 12.4068 14.9696 12.8031 15.0058C13.1994 15.042 13.5651 15.2342 13.8197 15.54C14.0743 15.8458 14.197 16.2403 14.1607 16.6366C14.1245 17.0328 13.9324 17.3985 13.6265 17.6531ZM46.6265 22.8469L37.6265 15.3469C37.4751 15.2208 37.3003 15.1258 37.1122 15.0673C36.924 15.0088 36.7262 14.9879 36.53 15.0058C36.3338 15.0237 36.143 15.0801 35.9686 15.1718C35.7941 15.2635 35.6395 15.3886 35.5134 15.54C35.2588 15.8458 35.1361 16.2403 35.1723 16.6366C35.2086 17.0328 35.4007 17.3985 35.7065 17.6531L43.3228 24L35.7065 30.3469C35.5508 30.4715 35.4215 30.626 35.3262 30.8012C35.2309 30.9764 35.1716 31.1689 35.1515 31.3673C35.1315 31.5658 35.1513 31.7662 35.2097 31.9569C35.268 32.1477 35.3639 32.3248 35.4916 32.4781C35.6192 32.6313 35.7762 32.7575 35.9532 32.8494C36.1303 32.9412 36.3239 32.9968 36.5227 33.013C36.7215 33.0291 36.9215 33.0054 37.111 32.9433C37.3006 32.8812 37.4758 32.7819 37.6265 32.6512L46.6265 25.1513C46.7954 25.0105 46.9313 24.8343 47.0245 24.6352C47.1178 24.4361 47.1661 24.2189 47.1661 23.9991C47.1661 23.7792 47.1178 23.562 47.0245 23.3629C46.9313 23.1638 46.7954 22.9876 46.6265 22.8469ZM31.1784 6.09C30.9933 6.02277 30.7967 5.99268 30.5999 6.00143C30.4031 6.01019 30.2099 6.05762 30.0315 6.14101C29.853 6.22441 29.6927 6.34215 29.5597 6.4875C29.4268 6.63284 29.3238 6.80296 29.2565 6.98813L17.2565 39.9881C17.189 40.1734 17.1587 40.3702 17.1673 40.5672C17.1759 40.7642 17.2233 40.9575 17.3067 41.1362C17.3901 41.3149 17.508 41.4754 17.6535 41.6085C17.799 41.7416 17.9693 41.8447 18.1547 41.9119C18.319 41.9703 18.4921 42.0001 18.6665 42C18.9746 42 19.2752 41.9052 19.5274 41.7284C19.7797 41.5516 19.9714 41.3014 20.0765 41.0119L32.0765 8.01188C32.1438 7.82671 32.1739 7.63012 32.1651 7.43333C32.1564 7.23653 32.1089 7.04339 32.0255 6.86492C31.9421 6.68646 31.8244 6.52617 31.679 6.39321C31.5337 6.26025 31.3636 6.15722 31.1784 6.09Z"
          fill="#2563EB"/>
</svg>
