<svg width="48" height="48" viewBox="0 0 48 48" fill="none" xmlns="http://www.w3.org/2000/svg">
    <path d="M33 3H15C13.8065 3 12.6619 3.47411 11.818 4.31802C10.9741 5.16193 10.5 6.30653 10.5 7.5V40.5C10.5 41.6935 10.9741 42.8381 11.818 43.682C12.6619 44.5259 13.8065 45 15 45H33C34.1935 45 35.3381 44.5259 36.182 43.682C37.0259 42.8381 37.5 41.6935 37.5 40.5V7.5C37.5 6.30653 37.0259 5.16193 36.182 4.31802C35.3381 3.47411 34.1935 3 33 3ZM34.5 40.5C34.5 40.8978 34.342 41.2794 34.0607 41.5607C33.7794 41.842 33.3978 42 33 42H15C14.6022 42 14.2206 41.842 13.9393 41.5607C13.658 41.2794 13.5 40.8978 13.5 40.5V7.5C13.5 7.10218 13.658 6.72064 13.9393 6.43934C14.2206 6.15804 14.6022 6 15 6H33C33.3978 6 33.7794 6.15804 34.0607 6.43934C34.342 6.72064 34.5 7.10218 34.5 7.5V40.5ZM26.25 11.25C26.25 11.695 26.118 12.13 25.8708 12.5C25.6236 12.87 25.2722 13.1584 24.861 13.3287C24.4499 13.499 23.9975 13.5436 23.561 13.4568C23.1246 13.37 22.7237 13.1557 22.409 12.841C22.0943 12.5263 21.88 12.1254 21.7932 11.689C21.7064 11.2525 21.751 10.8001 21.9213 10.389C22.0916 9.97783 22.38 9.62643 22.75 9.37919C23.12 9.13196 23.555 9 24 9C24.5967 9 25.169 9.23705 25.591 9.65901C26.0129 10.081 26.25 10.6533 26.25 11.25Z"
          fill="#2563EB"/>
</svg>
