<svg width="49" height="48" viewBox="0 0 49 48" fill="none" xmlns="http://www.w3.org/2000/svg">
    <path d="M28.3951 25.9387C28.2558 25.7993 28.0904 25.6886 27.9083 25.6132C27.7262 25.5377 27.531 25.4988 27.3338 25.4988C27.1367 25.4988 26.9415 25.5377 26.7594 25.6132C26.5773 25.6886 26.4119 25.7993 26.2726 25.9387L22.8338 29.3794L18.9545 25.5L22.3951 22.0613C22.6766 21.7798 22.8347 21.398 22.8347 21C22.8347 20.602 22.6766 20.2202 22.3951 19.9387C22.1136 19.6573 21.7319 19.4992 21.3338 19.4992C20.9358 19.4992 20.5541 19.6573 20.2726 19.9387L16.8338 23.3794L13.3951 19.9387C13.1136 19.6573 12.7319 19.4992 12.3338 19.4992C11.9358 19.4992 11.5541 19.6573 11.2726 19.9387C10.9911 20.2202 10.833 20.602 10.833 21C10.833 21.398 10.9911 21.7798 11.2726 22.0613L12.4632 23.25L8.09072 27.6206C7.53342 28.1778 7.09134 28.8393 6.78973 29.5673C6.48811 30.2954 6.33287 31.0757 6.33287 31.8637C6.33287 32.6518 6.48811 33.4321 6.78973 34.1602C7.09134 34.8882 7.53342 35.5497 8.09072 36.1069L9.09947 37.1137L3.77259 42.4387C3.63323 42.5781 3.52268 42.7436 3.44725 42.9257C3.37183 43.1077 3.33301 43.3029 3.33301 43.5C3.33301 43.6971 3.37183 43.8923 3.44725 44.0743C3.52268 44.2564 3.63323 44.4219 3.77259 44.5613C4.05405 44.8427 4.4358 45.0008 4.83384 45.0008C5.03093 45.0008 5.2261 44.962 5.40819 44.8866C5.59028 44.8112 5.75573 44.7006 5.89509 44.5613L11.2201 39.2344L12.227 40.2431C12.7841 40.8004 13.4456 41.2425 14.1737 41.5441C14.9017 41.8457 15.682 42.001 16.4701 42.001C17.2581 42.001 18.0385 41.8457 18.7665 41.5441C19.4946 41.2425 20.156 40.8004 20.7132 40.2431L25.0838 35.8706L26.2726 37.0613C26.412 37.2006 26.5774 37.3112 26.7595 37.3866C26.9416 37.462 27.1368 37.5008 27.3338 37.5008C27.5309 37.5008 27.7261 37.462 27.9082 37.3866C28.0903 37.3112 28.2557 37.2006 28.3951 37.0613C28.5345 36.9219 28.645 36.7564 28.7204 36.5743C28.7959 36.3923 28.8347 36.1971 28.8347 36C28.8347 35.8029 28.7959 35.6077 28.7204 35.4257C28.645 35.2436 28.5345 35.0781 28.3951 34.9387L24.9545 31.5L28.3951 28.0612C28.5346 27.9219 28.6452 27.7565 28.7207 27.5744C28.7962 27.3923 28.835 27.1971 28.835 27C28.835 26.8029 28.7962 26.6077 28.7207 26.4256C28.6452 26.2435 28.5346 26.0781 28.3951 25.9387ZM18.5907 38.1262C18.0282 38.6884 17.2654 39.0042 16.4701 39.0042C15.6748 39.0042 14.912 38.6884 14.3495 38.1262L10.2132 33.9844C9.65103 33.4218 9.33523 32.6591 9.33523 31.8637C9.33523 31.0684 9.65103 30.3057 10.2132 29.7431L14.5838 25.3706L22.9632 33.75L18.5907 38.1262ZM44.8951 3.43875C44.7558 3.29928 44.5904 3.18865 44.4083 3.11316C44.2262 3.03767 44.031 2.99882 43.8338 2.99882C43.6367 2.99882 43.4415 3.03767 43.2594 3.11316C43.0773 3.18865 42.9119 3.29928 42.7726 3.43875L37.4476 8.76562L36.4407 7.75687C35.3142 6.63365 33.7884 6.00291 32.1976 6.00291C30.6068 6.00291 29.0809 6.63365 27.9545 7.75687L23.5838 12.1294L22.3951 10.9387C22.1136 10.6573 21.7319 10.4992 21.3338 10.4992C20.9358 10.4992 20.5541 10.6573 20.2726 10.9387C19.9911 11.2202 19.833 11.602 19.833 12C19.833 12.398 19.9911 12.7798 20.2726 13.0613L35.2726 28.0612C35.412 28.2006 35.5774 28.3112 35.7595 28.3866C35.9416 28.462 36.1367 28.5008 36.3338 28.5008C36.5309 28.5008 36.7261 28.462 36.9082 28.3866C37.0903 28.3112 37.2557 28.2006 37.3951 28.0612C37.5345 27.9219 37.645 27.7564 37.7204 27.5743C37.7959 27.3923 37.8347 27.1971 37.8347 27C37.8347 26.8029 37.7959 26.6077 37.7204 26.4257C37.645 26.2436 37.5345 26.0781 37.3951 25.9387L36.2045 24.75L40.577 20.3794C41.1343 19.8222 41.5763 19.1607 41.878 18.4327C42.1796 17.7046 42.3348 16.9243 42.3348 16.1362C42.3348 15.3482 42.1796 14.5679 41.878 13.8398C41.5763 13.1118 41.1343 12.4503 40.577 11.8931L39.5682 10.8862L44.8951 5.56125C45.0346 5.42194 45.1452 5.25651 45.2207 5.07441C45.2962 4.89231 45.335 4.69712 45.335 4.5C45.335 4.30288 45.2962 4.10769 45.2207 3.92559C45.1452 3.74349 45.0346 3.57806 44.8951 3.43875ZM38.4545 18.2512L34.0838 22.6294L25.7045 14.25L30.077 9.87937C30.6395 9.31719 31.4023 9.00139 32.1976 9.00139C32.9929 9.00139 33.7557 9.31719 34.3182 9.87937L38.4545 14.0044C38.7345 14.2831 38.9567 14.6145 39.1084 14.9794C39.26 15.3442 39.3381 15.7355 39.3381 16.1306C39.3381 16.5258 39.26 16.917 39.1084 17.2819C38.9567 17.6468 38.7345 17.9781 38.4545 18.2569V18.2512Z"
          fill="#2563EB"/>
</svg>
